<svg width="188" height="48" viewBox="0 0 188 48" fill="none" xmlns="http://www.w3.org/2000/svg">
<path fill-rule="evenodd" clip-rule="evenodd" d="M54.8624 24C54.8624 33.6987 47.0002 41.561 37.3014 41.561C27.6028 41.561 19.7405 33.6987 19.7405 24C19.7405 14.3014 27.6028 6.43906 37.3014 6.43906C47.0002 6.43906 54.8624 14.3014 54.8624 24ZM40.012 14.5862C41.5089 16.0832 41.5089 18.5102 40.012 20.0072L37.3014 22.7176L34.591 20.0072C33.0941 18.5102 33.0941 16.0832 34.591 14.5862C36.088 13.0892 38.515 13.0892 40.012 14.5862ZM46.7153 26.7105C45.2183 28.2075 42.7913 28.2075 41.2943 26.7105L38.5839 24.0001L41.2943 21.2895C42.7913 19.7926 45.2183 19.7926 46.7153 21.2895C48.2122 22.7865 48.2122 25.2135 46.7153 26.7105ZM40.012 27.9929C41.5089 29.4899 41.5089 31.9169 40.012 33.4139C38.515 34.9109 36.088 34.9109 34.591 33.4139C33.0941 31.9169 33.0941 29.4899 34.591 27.9929L37.3014 25.2825L40.012 27.9929ZM27.8876 21.2895C26.3906 22.7865 26.3906 25.2135 27.8876 26.7105C29.3846 28.2075 31.8116 28.2075 33.3086 26.7105L36.019 24.0001L33.3086 21.2895C31.8116 19.7926 29.3846 19.7926 27.8876 21.2895ZM75.17 31.9025H64.6756V16.8352H68.4055V28.7415H75.17V31.9025ZM79.1116 26.5288C79.1116 28.4886 79.8914 29.7951 81.3876 29.7951C82.8837 29.7951 83.6845 28.4886 83.6845 26.5288C83.6845 24.569 82.8837 23.2414 81.3876 23.2414C79.8914 23.2414 79.1116 24.569 79.1116 26.5288ZM87.1616 26.5288C87.1616 29.7741 84.8857 32.2396 81.4086 32.2396C77.9526 32.2396 75.6346 29.7741 75.6346 26.5288C75.6346 23.2835 77.9526 20.818 81.4086 20.818C84.8857 20.818 87.1616 23.2835 87.1616 26.5288ZM93.1801 35.6324C94.7817 35.6324 96.1936 35.2741 97.1418 34.4312C98.0058 33.6515 98.5748 32.4714 98.5748 30.8487V21.1129H95.2874V22.272H95.2453C94.6131 21.3658 93.6437 20.7968 92.2107 20.7968C89.5344 20.7968 87.68 23.0306 87.68 26.1916C87.68 29.5001 89.9348 31.3124 92.3582 31.3124C93.6648 31.3124 94.4866 30.7855 95.1188 30.069H95.2031V31.1438C95.2031 32.4503 94.592 33.2089 93.1379 33.2089C92 33.2089 91.431 32.7243 91.2414 32.1553H87.9118C88.249 34.4101 90.2088 35.6324 93.1801 35.6324ZM93.159 28.7625C91.8736 28.7625 91.0306 27.7088 91.0306 26.0862C91.0306 24.4425 91.8736 23.3888 93.159 23.3888C94.592 23.3888 95.3506 24.6111 95.3506 26.0651C95.3506 27.5824 94.6552 28.7625 93.159 28.7625ZM103.058 26.5288C103.058 28.4886 103.838 29.7951 105.334 29.7951C106.831 29.7951 107.631 28.4886 107.631 26.5288C107.631 24.569 106.831 23.2414 105.334 23.2414C103.838 23.2414 103.058 24.569 103.058 26.5288ZM111.108 26.5288C111.108 29.7741 108.832 32.2396 105.355 32.2396C101.899 32.2396 99.5814 29.7741 99.5814 26.5288C99.5814 23.2835 101.899 20.818 105.355 20.818C108.832 20.818 111.108 23.2835 111.108 26.5288ZM112.112 31.9025H115.547V21.113H112.112V31.9025ZM112.112 19.6168H115.547V16.8352H112.112V19.6168ZM120.472 35.4638H117.037V21.1129H120.324V22.4195H120.387C121.125 21.4501 122.179 20.7968 123.654 20.7968C126.52 20.7968 128.269 23.2624 128.269 26.5077C128.269 30.0058 126.393 32.2396 123.569 32.2396C122.179 32.2396 121.188 31.6917 120.514 30.7855H120.472V35.4638ZM120.366 26.6341C120.366 28.3832 121.209 29.5844 122.684 29.5844C123.991 29.5844 124.792 28.4675 124.792 26.6341C124.792 24.7797 124.096 23.5574 122.621 23.5574C121.125 23.5574 120.366 24.885 120.366 26.6341ZM133.861 32.2396C136.685 32.2396 138.771 31.0173 138.771 28.6571C138.771 25.8966 136.537 25.4119 134.641 25.0958C134.472 25.0646 134.305 25.0356 134.142 25.0074C132.988 24.8069 132.049 24.6439 132.049 23.9789C132.049 23.3046 132.702 22.9885 133.545 22.9885C134.493 22.9885 135.146 23.2835 135.273 24.2528H138.434C138.265 22.1245 136.622 20.7968 133.566 20.7968C131.016 20.7968 128.909 21.9769 128.909 24.2528C128.909 26.7816 130.911 27.2874 132.786 27.6035C132.936 27.6299 133.084 27.6547 133.23 27.6791C134.478 27.8878 135.526 28.0631 135.526 28.9311C135.526 29.6265 134.872 30.0058 133.84 30.0058C132.702 30.0058 131.985 29.479 131.859 28.4043H128.614C128.719 30.7855 130.7 32.2396 133.861 32.2396ZM146.661 30.5749C145.881 31.6285 144.933 32.2186 143.437 32.2186C140.95 32.2186 139.644 30.5959 139.644 28.1936V21.113H143.058V27.4771C143.058 28.6572 143.584 29.3105 144.68 29.3105C145.86 29.3105 146.577 28.4254 146.577 27.1399V21.113H150.012V31.9025H146.724V30.5749H146.661ZM151.506 31.9024H154.941V25.8544C154.941 24.5689 155.573 23.6628 156.648 23.6628C157.681 23.6628 158.165 24.3371 158.165 25.4962V31.9024H161.6V25.8544C161.6 24.5689 162.211 23.6628 163.307 23.6628C164.34 23.6628 164.824 24.3371 164.824 25.4962V31.9024H168.259V24.885C168.259 22.4616 167.037 20.7968 164.593 20.7968C163.202 20.7968 162.043 21.3869 161.2 22.6934H161.158C160.61 21.5344 159.535 20.7968 158.123 20.7968C156.564 20.7968 155.531 21.5344 154.857 22.6513H154.794V21.1129H151.506V31.9024Z" fill="#626981"/>
</svg>
